<svg xmlns="http://www.w3.org/2000/svg" xmlns:xlink="http://www.w3.org/1999/xlink" width="69" height="69" viewBox="0 0 69 69">
  <defs>
    <filter id="Ellipse_10" x="0" y="0" width="69" height="69" filterUnits="userSpaceOnUse">
      <feOffset dy="5" input="SourceAlpha"/>
      <feGaussianBlur stdDeviation="2.5" result="blur"/>
      <feFlood flood-opacity="0.051"/>
      <feComposite operator="in" in2="blur"/>
      <feComposite in="SourceGraphic"/>
    </filter>
  </defs>
  <g id="Group_131" data-name="Group 131" transform="translate(-109.5 -825.5)">
    <g transform="matrix(1, 0, 0, 1, 109.5, 825.5)" filter="url(#Ellipse_10)">
      <g id="Ellipse_10-2" data-name="Ellipse 10" transform="translate(7.5 2.5)" fill="#fff" stroke="rgba(112,112,112,0.2)" stroke-width="1">
        <circle cx="27" cy="27" r="27" stroke="none"/>
        <circle cx="27" cy="27" r="26.5" fill="none"/>
      </g>
    </g>
    <g id="Group_90" data-name="Group 90" transform="translate(133 844)">
      <path id="Path_2140" data-name="Path 2140" d="M4.876,145.622,4.11,148.48l-2.8.059a11.019,11.019,0,0,1-.081-10.272h0l2.492.457L4.814,141.2a6.565,6.565,0,0,0,.062,4.42Z" transform="translate(0 -132.327)" fill="#fbbb00"/>
      <path id="Path_2141" data-name="Path 2141" d="M272.194,208.176a11,11,0,0,1-3.921,10.633h0l-3.139-.16-.444-2.773a6.556,6.556,0,0,0,2.821-3.348h-5.882v-4.352h10.566Z" transform="translate(-250.386 -199.231)" fill="#518ef8"/>
      <path id="Path_2142" data-name="Path 2142" d="M47.084,315.692h0a11,11,0,0,1-16.575-3.365l3.565-2.918a6.542,6.542,0,0,0,9.427,3.35Z" transform="translate(-29.198 -296.114)" fill="#28b446"/>
      <path id="Path_2143" data-name="Path 2143" d="M45.415,2.532,41.852,5.45a6.541,6.541,0,0,0-9.644,3.425L28.625,5.941h0A11,11,0,0,1,45.415,2.532Z" transform="translate(-27.394)" fill="#f14336"/>
    </g>
  </g>
</svg>
