<svg xmlns="http://www.w3.org/2000/svg" width="19.296" height="16.884" viewBox="0 0 19.296 16.884">
  <path id="Icon_fa-solid-camera" data-name="Icon fa-solid-camera" d="M5.619,3.486,5.227,4.662H2.412A2.414,2.414,0,0,0,0,7.074v9.648a2.414,2.414,0,0,0,2.412,2.412H16.884A2.414,2.414,0,0,0,19.3,16.722V7.074a2.414,2.414,0,0,0-2.412-2.412H14.069l-.392-1.176A1.8,1.8,0,0,0,11.962,2.25H7.334A1.8,1.8,0,0,0,5.619,3.486ZM9.648,8.28A3.618,3.618,0,1,1,6.03,11.9,3.618,3.618,0,0,1,9.648,8.28Z" transform="translate(0 -2.25)" fill="#fff"/>
</svg>
